<svg width="45" height="44" viewBox="0 0 45 44"  xmlns="http://www.w3.org/2000/svg">
<path d="M41.4018 14.9838C41.4018 15.2216 40.9473 15.4595 40.9473 15.6973L40.7201 15.9351L40.2656 16.4108L40.0384 16.6486C40.0384 16.6486 40.0384 16.6486 39.8112 16.8865L39.5839 17.1243C37.5388 19.027 35.4937 19.9784 32.7669 19.7405C32.3125 19.7405 31.858 19.5027 31.6308 19.5027C31.1763 19.2649 30.7219 19.2649 30.4946 19.9784C29.3585 23.3081 28.904 26.8757 28.6768 30.4432C28.6768 30.4432 28.6768 31.8703 28.6768 32.3459C30.4946 33.2973 31.6308 35.4378 31.6308 37.5784V38.0541C31.6308 41.3838 29.1312 44 25.95 44H25.4955C22.3142 44 19.8147 41.3838 19.8147 38.0541V37.5784C19.8147 34.7243 21.8598 32.1081 24.5866 31.6324C24.3593 31.1568 24.1321 30.4432 24.1321 30.4432C23.9049 29.9676 23.9049 29.4919 23.6776 29.0162C21.8598 30.6811 19.5874 31.1568 17.3151 30.9189C14.1338 30.6811 11.6343 29.2541 9.1347 27.3513C2.54494 22.3568 -0.409087 15.4595 0.0453795 7.13513C0.0453795 5.70811 0.27262 4.28108 0.727086 2.85405C4.36282 5.94595 8.22579 8.32433 12.7704 9.27568C12.9977 9.27568 13.2249 9.27567 13.4521 9.51351H13.6794C14.5883 9.75135 15.7245 9.98919 16.6334 10.227C21.6325 11.6541 25.2683 14.5081 26.6317 19.9784C27.0861 21.8811 27.0861 23.7838 26.1772 25.9243C24.3593 21.6432 20.9508 19.5027 16.8606 18.3135C14.3611 17.6 12.0887 16.4108 10.0436 14.9838C9.81641 14.7459 9.81641 14.5081 9.58918 14.7459C9.36195 14.9838 9.81641 14.9838 9.81641 15.2216C11.1798 17.1243 13.2249 18.5514 15.27 19.5027C17.7696 20.9297 20.2691 22.1189 22.3142 24.2595C24.1321 26.1622 25.7227 28.0649 26.4044 30.6811L26.6317 31.6324H26.8589C27.0861 27.5892 27.7678 22.5946 28.904 19.027C30.0402 16.173 31.6308 14.0324 34.3576 12.6054C35.9482 11.8919 37.3116 11.1784 38.675 10.227C39.8112 9.27568 40.0384 8.08649 40.7201 6.8973C39.1295 9.98919 30.0401 11.1784 28.4495 16.8865C28.2223 16.4108 27.9951 15.9351 27.9951 15.6973C27.7678 14.7459 27.7678 13.5568 27.9951 12.6054C28.2223 10.4649 29.3585 8.8 31.1763 7.61081C32.3125 6.65946 33.6759 5.94595 35.2665 5.47027C38.675 4.28108 41.629 2.61622 44.1286 0C46.1737 4.51892 44.3558 11.6541 41.4018 14.9838Z" />
</svg>
