<svg width="173" height="19" viewBox="0 0 173 19" xmlns="http://www.w3.org/2000/svg">
<path d="M14.7653 1.13525L14.1601 5.12913H9.31905L7.2616 18.079H2.78361L4.84107 5.12913H0L0.605133 1.13525H14.7653Z" />
<path d="M21.9058 18.4421C15.9755 18.4421 13.3129 14.2061 14.039 9.36505C14.7652 4.76604 18.517 0.772156 24.3263 0.772156C30.0146 0.772156 32.9192 5.00809 32.193 9.84916C31.4669 14.4482 27.715 18.4421 21.9058 18.4421ZM22.1478 14.3271C25.1735 14.3271 27.2309 12.2697 27.594 9.48608C27.9571 6.94452 26.8679 4.88706 23.9632 4.88706C20.9376 4.88706 19.0011 6.94452 18.517 9.72813C18.1539 12.2697 19.3642 14.3271 22.1478 14.3271Z" />
<path d="M42.4804 18.079L43.4486 12.2697C42.1173 12.7538 40.786 12.9959 39.5757 12.9959C36.066 12.9959 33.5244 10.9384 34.1295 6.94453L35.0978 1.13525H39.5757L38.6075 6.94453C38.3655 8.39686 39.4547 8.88096 40.907 8.88096C41.9963 8.88096 42.9645 8.63891 43.9327 8.27583L45.0219 1.13525H49.742L47.0794 18.2H42.4804V18.079Z" />
<path d="M68.5011 1.13522L61.8446 9.72811L65.9595 18.079H61.1185L58.0928 11.5435H55.7933L54.7041 18.079H50.2261L52.8887 1.01419H57.3667L56.3984 7.54963H58.6979L63.539 1.13522H68.5011Z" />
<path d="M79.5145 18.079L78.9094 15.4164H71.8898L70.5585 18.079H65.8385L75.1576 1.13525H79.9986L83.9925 18.2H79.5145V18.079ZM73.8263 11.7856H78.1832L77.215 7.06556C77.094 6.58146 77.094 5.97632 76.973 5.25016C76.7309 6.09735 76.4888 6.58146 76.2468 7.06556L73.8263 11.7856Z" />
<path d="M100.089 1.13522C104.083 1.13522 107.351 2.58754 106.624 7.18655C105.898 11.5435 102.873 12.7538 98.6367 12.7538H96.2162L95.369 18.079H90.891L93.5536 1.01419H100.089V1.13522ZM99.847 5.00807H97.3054L96.7003 8.88093H99.2418C100.694 8.88093 101.904 8.39682 102.025 6.9445C102.267 5.25012 101.178 5.00807 99.847 5.00807Z" />
<path d="M115.459 18.4421C109.529 18.4421 106.867 14.2061 107.593 9.36505C108.319 4.76604 112.071 0.772156 117.88 0.772156C123.568 0.772156 126.473 5.00809 125.747 9.84916C125.021 14.4482 121.269 18.4421 115.459 18.4421ZM115.701 14.3271C118.727 14.3271 120.785 12.2697 121.148 9.48608C121.511 6.94452 120.422 4.88706 117.517 4.88706C114.491 4.88706 112.555 6.94452 112.071 9.72813C111.708 12.2697 112.918 14.3271 115.701 14.3271Z" />
<path d="M137.728 0.772156C139.665 0.772156 141.238 1.13524 142.69 1.98242L142.085 5.9763C141.238 5.12912 139.786 4.64501 138.333 4.64501C135.792 4.64501 132.524 5.9763 131.919 9.72813C131.435 12.9959 133.734 14.4482 136.397 14.4482C138.091 14.4482 139.786 13.843 141.117 12.9959L140.391 17.3528C138.939 18.079 137.123 18.321 135.55 18.321C131.072 18.321 126.473 15.4164 127.441 9.24402C128.288 3.31372 133.734 0.772156 137.728 0.772156Z" />
<path d="M158.061 1.13525L157.456 5.12913H152.615L150.557 18.079H146.079L148.137 5.12913H143.296L143.901 1.13525H158.061Z" />
<path d="M167.501 18.079L166.896 15.4164H159.876L158.545 18.079H153.825L163.265 1.01419H168.106L172.1 18.079H167.501ZM161.813 11.7856H166.17L165.201 7.06553C165.08 6.58142 165.08 5.97628 164.959 5.25012C164.717 6.09731 164.475 6.58142 164.233 7.06553L161.813 11.7856Z" />
</svg>
