<svg width="96" height="96" viewBox="0 0 96 96" xmlns="http://www.w3.org/2000/svg">
<path d="M47.9398 0C21.4404 0 0 21.4404 0 47.9398C0 74.4391 21.4404 95.8795 47.9398 95.8795C74.4391 95.8795 95.8795 74.4391 95.8795 47.9398C95.8795 21.4404 74.4391 0 47.9398 0ZM77.2095 77.5709C70.2233 85.1593 57.6964 88.1706 48.542 84.4366C44.3262 82.7503 41.3149 79.4981 39.6286 75.1619C36.9787 68.1757 38.0627 58.5395 42.7603 48.6625C43.4831 47.2171 45.0489 46.6148 46.4944 47.3375C47.9398 47.9398 48.542 49.6261 47.8193 51.0715C43.8444 59.5031 42.7603 67.6938 44.808 73.1142C45.8921 76.005 47.8193 78.0527 50.7102 79.1368C57.6964 82.0276 67.6938 79.4981 73.1142 73.596C85.6412 59.9849 83.5935 44.808 81.1844 36.9787C76.7277 22.0427 64.4417 12.4065 49.9874 12.4065H49.867C30.8356 12.4065 15.5383 25.8971 13.3701 44.4467C11.202 63.1167 20.1154 78.1731 35.0514 81.1844C36.6173 81.4253 37.5809 82.9912 37.2196 84.4366C36.9787 85.7616 35.7742 86.7252 34.4492 86.7252C34.3287 86.7252 34.0878 86.7252 33.8469 86.7252C16.1405 83.3526 5.42033 65.7666 7.82936 44.0853C10.2384 22.6449 27.9448 6.9862 49.867 6.9862H49.9874C67.0916 6.9862 81.4253 18.1882 86.6048 35.5332C91.0615 50.8306 87.6888 66.128 77.2095 77.5709ZM33.3651 63.5985C33.9674 65.0439 35.0514 66.8507 35.7742 67.8143C36.1355 68.2961 36.256 68.7779 36.256 69.3802C36.256 70.1029 36.3764 71.3074 36.4969 72.271C36.8582 74.1982 35.1719 74.68 34.0878 73.8369C31.7992 71.7892 29.3902 68.1757 28.9084 67.0916C27.2221 63.7189 25.8971 57.8168 26.7403 51.5533C28.4266 37.9423 35.6537 27.7039 48.0602 21.1995C49.9875 20.2359 52.0351 19.3927 54.926 18.67L56.3714 18.3087L59.2622 17.4655L58.66 20.4768L58.4191 21.9222C56.9736 29.1493 57.2146 35.7742 59.3827 42.2785L59.9849 44.4467C60.3463 45.7716 60.8281 47.0966 61.069 48.542C63.7189 58.1782 61.6713 66.2484 54.926 72.3915C54.2033 73.1142 52.8783 73.9573 51.7942 74.68C50.2284 75.6437 47.8193 74.921 47.3375 73.4755C46.8557 72.1506 47.3375 71.7892 51.192 68.2961C56.3714 63.478 57.8168 57.5759 55.6487 49.7465V49.6261V49.5056C55.5282 48.3011 55.1669 47.2171 54.6851 46.0125L54.0828 43.8444C52.1556 37.9423 51.5533 31.7992 52.276 25.4153C51.7942 25.6562 51.3124 25.8971 50.7102 26.138C39.99 31.7992 33.8469 40.4718 32.2811 52.1556C31.5583 57.6964 31.7992 60.2258 33.3651 63.5985Z"/>
</svg>
