<svg width="349" height="64" viewBox="0 0 349 64" fill="none" xmlns="http://www.w3.org/2000/svg">
<path d="M0.29475 1.4H29.3828V11.096H20.3588V35H9.31875V11.096H0.29475V1.4ZM34.9196 30.824C31.7516 27.496 30.1676 23.288 30.1676 18.2C30.1676 13.112 31.7516 8.92 34.9196 5.624C38.0876 2.296 42.5676 0.631999 48.3596 0.631999C54.1516 0.631999 58.6316 2.296 61.7996 5.624C64.9676 8.92 66.5516 13.112 66.5516 18.2C66.5516 23.288 64.9676 27.496 61.7996 30.824C58.6316 34.12 54.1516 35.768 48.3596 35.768C42.5676 35.768 38.0876 34.12 34.9196 30.824ZM53.3516 23.72C54.5676 22.376 55.1756 20.536 55.1756 18.2C55.1756 15.864 54.5676 14.024 53.3516 12.68C52.1676 11.336 50.5036 10.664 48.3596 10.664C46.2156 10.664 44.5356 11.336 43.3196 12.68C42.1356 14.024 41.5436 15.864 41.5436 18.2C41.5436 20.536 42.1356 22.376 43.3196 23.72C44.5356 25.064 46.2156 25.736 48.3596 25.736C50.5036 25.736 52.1676 25.064 53.3516 23.72ZM99.2235 35H88.1355V24.344C85.9275 25.048 83.6555 25.4 81.3195 25.4C77.6075 25.4 74.6475 24.44 72.4395 22.52C70.2315 20.568 69.1275 17.72 69.1275 13.976V1.4H80.2155V12.632C80.2155 13.688 80.5835 14.472 81.3195 14.984C82.0875 15.496 83.0795 15.752 84.2955 15.752C85.6715 15.752 86.9515 15.48 88.1355 14.936V1.4H99.2235V35ZM115.398 35H104.31V1.4H115.398V13.304H118.182L124.902 1.4H137.094L126.87 18.056L137.286 35H125.094L117.942 23H115.398V35ZM147.776 35H136.543L149.12 1.4H161.024L173.552 35H162.32L160.88 30.536H149.264L147.776 35ZM154.16 15.368L151.808 22.52H158.384L156.032 15.368C155.584 13.96 155.264 12.52 155.072 11.048C154.88 12.328 154.576 13.768 154.16 15.368ZM184.653 1.4H199.341C209.389 1.4 214.413 5.544 214.413 13.832C214.413 22.088 209.389 26.216 199.341 26.216H195.741V35H184.653V1.4ZM203.421 13.832C203.421 11.624 202.029 10.52 199.245 10.52H195.741V17.096H199.245C202.029 17.096 203.421 16.008 203.421 13.832ZM221.201 30.824C218.033 27.496 216.449 23.288 216.449 18.2C216.449 13.112 218.033 8.92 221.201 5.624C224.369 2.296 228.849 0.631999 234.641 0.631999C240.433 0.631999 244.913 2.296 248.081 5.624C251.249 8.92 252.833 13.112 252.833 18.2C252.833 23.288 251.249 27.496 248.081 30.824C244.913 34.12 240.433 35.768 234.641 35.768C228.849 35.768 224.369 34.12 221.201 30.824ZM239.633 23.72C240.849 22.376 241.457 20.536 241.457 18.2C241.457 15.864 240.849 14.024 239.633 12.68C238.449 11.336 236.785 10.664 234.641 10.664C232.497 10.664 230.817 11.336 229.601 12.68C228.417 14.024 227.825 15.864 227.825 18.2C227.825 20.536 228.417 22.376 229.601 23.72C230.817 25.064 232.497 25.736 234.641 25.736C236.785 25.736 238.449 25.064 239.633 23.72ZM255.169 18.536C255.169 15.464 255.681 12.744 256.705 10.376C257.729 8.008 259.121 6.136 260.881 4.76C262.673 3.384 264.625 2.36 266.737 1.688C268.881 0.983999 271.153 0.631999 273.553 0.631999C277.169 0.631999 280.465 1.304 283.441 2.648V12.536C281.233 11 278.593 10.232 275.521 10.232C272.961 10.232 270.817 10.92 269.089 12.296C267.393 13.64 266.545 15.72 266.545 18.536C266.545 21 267.393 22.872 269.089 24.152C270.785 25.4 272.849 26.024 275.281 26.024C279.089 26.024 281.889 25.224 283.681 23.624V33.752C280.705 35.096 277.425 35.768 273.841 35.768C271.377 35.768 269.057 35.432 266.881 34.76C264.705 34.088 262.721 33.096 260.929 31.784C259.169 30.44 257.761 28.632 256.705 26.36C255.681 24.088 255.169 21.48 255.169 18.536ZM285.764 1.4H314.852V11.096H305.828V35H294.788V11.096H285.764V1.4ZM322.385 35H311.153L323.729 1.4H335.633L348.161 35H336.929L335.489 30.536H323.873L322.385 35ZM328.769 15.368L326.417 22.52H332.993L330.641 15.368C330.193 13.96 329.873 12.52 329.681 11.048C329.489 12.328 329.185 13.768 328.769 15.368ZM48.5978 59.184C47.3178 61.936 45.5178 63.312 43.1978 63.312C42.4458 63.312 41.6458 63.184 40.7978 62.928V60.504C41.4218 60.712 42.0698 60.816 42.7418 60.816C44.1018 60.816 45.0938 60.192 45.7178 58.944L46.0298 58.32L39.2138 46.2H42.2617L47.4218 55.8L51.7178 46.2H54.6938L48.5978 59.184ZM56.6963 46.2H62.6963C67.4803 46.2 69.8723 48.04 69.8723 51.72C69.8723 55.4 67.4803 57.24 62.6963 57.24H59.4323V63H56.6963V46.2ZM65.9363 54.096C66.7043 53.648 67.0883 52.856 67.0883 51.72C67.0883 50.584 66.7043 49.8 65.9363 49.368C65.1843 48.92 64.1523 48.696 62.8403 48.696H59.4323V54.744H62.8403C64.1523 54.744 65.1843 54.528 65.9363 54.096ZM72.1058 57.84C71.7378 56.816 71.5538 55.736 71.5538 54.6C71.5538 53.464 71.7378 52.384 72.1058 51.36C72.4898 50.336 73.0338 49.416 73.7378 48.6C74.4418 47.768 75.3698 47.112 76.5218 46.632C77.6738 46.136 78.9618 45.888 80.3858 45.888C81.8098 45.888 83.0898 46.136 84.2258 46.632C85.3778 47.112 86.3058 47.768 87.0098 48.6C87.7298 49.416 88.2738 50.336 88.6418 51.36C89.0258 52.384 89.2178 53.464 89.2178 54.6C89.2178 55.736 89.0258 56.816 88.6418 57.84C88.2738 58.864 87.7298 59.792 87.0098 60.624C86.3058 61.44 85.3778 62.096 84.2258 62.592C83.0898 63.072 81.8098 63.312 80.3858 63.312C78.9618 63.312 77.6738 63.072 76.5218 62.592C75.3698 62.096 74.4418 61.44 73.7378 60.624C73.0338 59.792 72.4898 58.864 72.1058 57.84ZM84.8498 58.968C85.9058 57.784 86.4338 56.328 86.4338 54.6C86.4338 52.872 85.9058 51.416 84.8498 50.232C83.8098 49.048 82.3218 48.456 80.3858 48.456C78.4658 48.456 76.9778 49.048 75.9218 50.232C74.8658 51.416 74.3378 52.872 74.3378 54.6C74.3378 56.328 74.8658 57.784 75.9218 58.968C76.9778 60.152 78.4658 60.744 80.3858 60.744C82.3218 60.744 83.8098 60.152 84.8498 58.968ZM92.865 63H89.769L95.025 54.384L90.201 46.2H93.273L97.233 53.208H99.801V46.2H102.537V53.208H105.081L109.041 46.2H112.137L107.289 54.384L112.545 63H109.473L105.057 55.728H102.537V63H99.801V55.728H97.257L92.865 63ZM115.736 63H112.832L119.936 46.2H122.936L130.016 63H127.136L125.648 59.376H117.224L115.736 63ZM121.112 49.8L118.16 56.976H124.688L121.736 49.8C121.608 49.448 121.504 49.136 121.424 48.864C121.344 49.136 121.24 49.448 121.112 49.8ZM143.78 63H146.516V46.2H143.948L134.9 58.488C134.916 58.104 134.924 57.488 134.924 56.64V46.2H132.188V63H134.756L143.804 50.712C143.788 51.096 143.78 51.704 143.78 52.536V63ZM142.868 43.752C141.892 44.44 140.716 44.784 139.34 44.784C137.948 44.784 136.764 44.44 135.788 43.752V41.544C136.844 42.232 138.028 42.576 139.34 42.576C140.636 42.576 141.812 42.232 142.868 41.544V43.752ZM156.259 46.2H163.363C165.155 46.2 166.563 46.56 167.587 47.28C168.611 48 169.123 49.056 169.123 50.448C169.123 51.408 168.875 52.208 168.379 52.848C167.883 53.472 167.251 53.904 166.483 54.144C167.395 54.4 168.171 54.872 168.811 55.56C169.467 56.232 169.795 57.16 169.795 58.344C169.795 59.24 169.595 60.016 169.195 60.672C168.795 61.312 168.259 61.792 167.587 62.112C166.915 62.432 166.235 62.664 165.547 62.808C164.875 62.936 164.163 63 163.411 63H156.259V46.2ZM167.011 58.056C167.011 56.344 165.851 55.488 163.531 55.488H158.995V60.6H163.147C163.707 60.6 164.179 60.576 164.563 60.528C164.947 60.48 165.339 60.376 165.739 60.216C166.155 60.056 166.467 59.8 166.675 59.448C166.899 59.08 167.011 58.616 167.011 58.056ZM166.339 50.88C166.339 49.344 165.251 48.576 163.075 48.576H158.995V53.16L163.459 53.184C164.307 53.184 164.995 52.992 165.523 52.608C166.067 52.224 166.339 51.648 166.339 50.88ZM181.26 63H178.524V46.2H192.636V63H189.9V48.72H181.26V63ZM196.184 57.84C195.816 56.816 195.632 55.736 195.632 54.6C195.632 53.464 195.816 52.384 196.184 51.36C196.568 50.336 197.112 49.416 197.816 48.6C198.52 47.768 199.448 47.112 200.6 46.632C201.752 46.136 203.04 45.888 204.464 45.888C205.888 45.888 207.168 46.136 208.304 46.632C209.456 47.112 210.384 47.768 211.088 48.6C211.808 49.416 212.352 50.336 212.72 51.36C213.104 52.384 213.296 53.464 213.296 54.6C213.296 55.736 213.104 56.816 212.72 57.84C212.352 58.864 211.808 59.792 211.088 60.624C210.384 61.44 209.456 62.096 208.304 62.592C207.168 63.072 205.888 63.312 204.464 63.312C203.04 63.312 201.752 63.072 200.6 62.592C199.448 62.096 198.52 61.44 197.816 60.624C197.112 59.792 196.568 58.864 196.184 57.84ZM208.928 58.968C209.984 57.784 210.512 56.328 210.512 54.6C210.512 52.872 209.984 51.416 208.928 50.232C207.888 49.048 206.4 48.456 204.464 48.456C202.544 48.456 201.056 49.048 200 50.232C198.944 51.416 198.416 52.872 198.416 54.6C198.416 56.328 198.944 57.784 200 58.968C201.056 60.152 202.544 60.744 204.464 60.744C206.4 60.744 207.888 60.152 208.928 58.968ZM227.898 46.2H230.634V63H227.898V55.848H219.042V63H216.306V46.2H219.042V53.328H227.898V46.2ZM242.168 59.184C240.888 61.936 239.088 63.312 236.768 63.312C236.016 63.312 235.216 63.184 234.368 62.928V60.504C234.992 60.712 235.64 60.816 236.312 60.816C237.672 60.816 238.664 60.192 239.288 58.944L239.6 58.32L232.784 46.2H235.832L240.992 55.8L245.288 46.2H248.264L242.168 59.184ZM272.995 51.36C273.379 52.384 273.571 53.464 273.571 54.6C273.571 55.736 273.379 56.816 272.995 57.84C272.627 58.864 272.091 59.792 271.387 60.624C270.683 61.44 269.755 62.096 268.603 62.592C267.467 63.072 266.187 63.312 264.763 63.312C262.235 63.312 260.211 62.6 258.691 61.176C257.187 59.736 256.307 57.968 256.051 55.872H253.003V63H250.267V46.2H253.003V53.328H256.051C256.307 51.216 257.187 49.448 258.691 48.024C260.211 46.6 262.235 45.888 264.763 45.888C266.187 45.888 267.467 46.136 268.603 46.632C269.755 47.112 270.683 47.768 271.387 48.6C272.091 49.416 272.627 50.336 272.995 51.36ZM260.275 50.232C259.219 51.416 258.691 52.872 258.691 54.6C258.691 56.328 259.219 57.784 260.275 58.968C261.331 60.152 262.819 60.744 264.739 60.744C266.675 60.744 268.163 60.152 269.203 58.968C270.259 57.784 270.787 56.328 270.787 54.6C270.787 52.872 270.259 51.416 269.203 50.232C268.163 49.048 266.675 48.456 264.739 48.456C262.819 48.456 261.331 49.048 260.275 50.232ZM281.203 54.744C281.203 53.304 281.459 52.008 281.971 50.856C282.483 49.704 283.163 48.776 284.011 48.072C284.859 47.352 285.803 46.808 286.843 46.44C287.883 46.072 288.971 45.888 290.107 45.888C291.819 45.888 293.411 46.256 294.883 46.992V49.656C293.683 48.824 292.243 48.408 290.563 48.408C288.787 48.408 287.251 48.944 285.955 50.016C284.659 51.088 284.003 52.664 283.987 54.744C283.987 56.056 284.323 57.184 284.995 58.128C285.667 59.072 286.491 59.752 287.467 60.168C288.443 60.584 289.491 60.792 290.611 60.792C292.403 60.792 293.867 60.36 295.003 59.496V62.208C293.499 62.944 291.875 63.312 290.131 63.312C289.011 63.312 287.931 63.136 286.891 62.784C285.851 62.416 284.899 61.888 284.035 61.2C283.171 60.512 282.483 59.608 281.971 58.488C281.459 57.368 281.203 56.12 281.203 54.744ZM312.384 63H309.648V52.536C309.648 51.704 309.656 51.096 309.672 50.712L300.624 63H298.056V46.2H300.792V56.64C300.792 57.488 300.784 58.104 300.768 58.488L309.816 46.2H312.384V63ZM319.526 46.2H330.398V63H327.662V48.72H322.094C321.998 49.904 321.91 50.832 321.83 51.504C321.766 52.176 321.67 53.04 321.542 54.096C321.414 55.152 321.278 55.992 321.134 56.616C321.006 57.224 320.838 57.928 320.63 58.728C320.422 59.528 320.182 60.16 319.91 60.624C319.638 61.088 319.326 61.544 318.974 61.992C318.622 62.424 318.214 62.744 317.75 62.952C317.302 63.144 316.798 63.24 316.238 63.24C315.726 63.24 315.174 63.144 314.582 62.952V60.432C314.902 60.544 315.286 60.6 315.734 60.6C316.166 60.584 316.558 60.408 316.91 60.072C317.262 59.736 317.55 59.256 317.774 58.632C318.014 58.008 318.222 57.32 318.398 56.568C318.574 55.8 318.718 54.912 318.83 53.904C318.958 52.88 319.062 51.904 319.142 50.976C319.238 50.032 319.326 48.984 319.406 47.832C319.454 47.112 319.494 46.568 319.526 46.2ZM341.942 59.184C340.662 61.936 338.862 63.312 336.542 63.312C335.79 63.312 334.99 63.184 334.142 62.928V60.504C334.766 60.712 335.414 60.816 336.086 60.816C337.446 60.816 338.438 60.192 339.062 58.944L339.374 58.32L332.558 46.2H335.605L340.766 55.8L345.062 46.2H348.038L341.942 59.184Z" fill="#166C00"/>
</svg>
