<svg width="84" height="84" viewBox="0 0 84 84" fill="none" xmlns="http://www.w3.org/2000/svg">
<path fill-rule="evenodd" clip-rule="evenodd" d="M52.9938 61.1939C47.7426 64.8395 41.3649 66.9761 34.488 66.9761C16.5454 66.9761 2 52.4307 2 34.488C2 16.5454 16.5454 2 34.488 2C52.4307 2 66.9761 16.5454 66.9761 34.488C66.9761 41.3648 64.8395 47.7426 61.1939 52.9937L58.4527 50.2525L50.2525 58.4526L52.9938 61.1939ZM54.4296 62.6297C48.7995 66.6265 41.9182 68.9761 34.488 68.9761C15.4408 68.9761 0 53.5353 0 34.488C0 15.4408 15.4408 0 34.488 0C53.5353 0 68.9761 15.4408 68.9761 34.488C68.9761 41.9182 66.6265 48.7995 62.6297 54.4296L84 75.7999L75.7999 84L54.4296 62.6297Z" fill="#166C00"/>
<path fill-rule="evenodd" clip-rule="evenodd" d="M34.7899 55.9837H34.7897C34.7897 55.9837 34.7896 55.9837 34.7896 55.9837V57.9837C34.7896 57.9837 34.7897 57.9837 34.7897 57.9837L34.7899 57.9837V55.9837ZM11.5962 34.7902C11.5962 34.7902 11.5962 34.7902 11.5962 34.7902C11.5962 21.9808 21.9803 11.5967 34.7897 11.5967L34.7901 11.5967V13.5967H34.7897C23.0848 13.5967 13.5962 23.0854 13.5962 34.7902C13.5962 34.7902 13.5962 34.7902 13.5962 34.7902H11.5962Z" fill="#166C00"/>
</svg>
