<svg width="96" height="96" viewBox="0 0 96 96" xmlns="http://www.w3.org/2000/svg">
<path d="M48 0C21.5 0 0 21.5 0 48C0 74.5 21.5 96 48 96C74.5 96 96 74.5 96 48C96 21.5 74.5 0 48 0ZM76.6 50C74.8 64.7 64 85.7 50.8 85.7C50.7 85.7 50.5 85.7 50.4 85.7C39.3 85.3 22 66.9 19.5 48.6C17.5 33.8 21.3 21.9 29.6 16.7C34 13.9 39.2 13.7 42.7 16.1C53.1 23.1 50.9 49.4 48.3 59.3C48 60.6 46.7 61.3 45.4 60.9C44.1 60.6 43.4 59.3 43.7 58C46.5 47.7 47.3 24.8 40.1 20C38.1 18.6 35 18.9 32.1 20.7C29.6 22.3 21.6 28.9 24.2 47.9C26.5 64.6 42.3 80.7 50.6 81C59.8 81.4 70.3 63.6 72 49.4C73.2 39.5 72.1 26.9 65.7 20.9C62.2 17.6 57.1 16.6 50.8 17.9C49.5 18.2 48.3 17.3 48 16.1C47.7 14.8 48.6 13.6 49.8 13.3C57.7 11.7 64.1 13.1 68.9 17.4C78.6 26.4 77.2 44.6 76.6 50Z"/>
</svg>
