<svg width="96" height="96" viewBox="0 0 96 96" xmlns="http://www.w3.org/2000/svg">
<path d="M48 0C21.5 0 0 21.5 0 48C0 74.5 21.5 96 48 96C74.5 96 96 74.5 96 48C96 21.5 74.5 0 48 0ZM25 62.9C24.5 63.9 22.8 64.2 21.8 63.3C21.1 62.7 20.3 62 19.8 61.4C15.7 56.5 14.9 50.7 17.6 44.2C17.9 43.2 18.3 42.3 18.7 41.4L19.3 40C21.3 35.7 22.1 31.1 21.7 25.9L21.6 24.8L21.4 22.7L23.3 23.5L24.3 23.9C26.2 24.7 27.6 25.4 28.8 26.2C33.8 29.7 37.3 33.9 39.2 39C39.7 40.2 40 41.3 40.3 42.6C40.8 44.7 41 46.9 41 49.2C41 53.6 39.6 57.6 38.2 59.8C37.7 60.5 35.8 62.9 34 64.1C33.2 64.6 32 64.1 32.4 62.8C32.6 62.1 32.8 61.3 32.9 60.8C33 60.4 33.1 60 33.4 59.7C33.9 59.1 34.8 57.9 35.4 57C35.8 56.3 36.1 55.7 36.4 55C36.9 53.5 37.1 51.8 37.1 49.2C37.1 47 36.8 44.9 36.3 43C34.9 37.5 31.6 33 26.5 29.5C26.2 29.3 25.9 29.1 25.5 28.9C25.5 33.5 24.5 37.7 22.7 41.6L22.1 43.1C21.7 43.9 21.4 44.7 21.1 45.5V45.6V45.7C18.9 51 19.4 55.2 22.6 59C25.1 61.7 25.5 62 25 62.9ZM54.8 81C54.2 82.6 53.3 84.1 52 86C52 86 51.6 86.8 51.3 87C50.5 87.6 49.6 87.5 48.8 86.9C48.6 86.7 48.2 85.9 48.2 85.9C45.4 80.8 41.9 77 37.4 74.2L36 73.2C35.1 72.6 34.2 72 33.3 71.3C26.9 66.8 24 61 24.9 53.9C25 53.1 25.3 52 25.7 51C26.1 49.6 28 48.8 29 49.4C30 49.9 29.8 50.4 29.3 54.4C28.6 59.9 30.7 64.1 35.9 67.7H36H36.1C36.8 68.3 37.6 68.8 38.4 69.4L39.9 70.4C44 73 47.4 76.3 50.3 80.5C50.5 80.1 50.7 79.7 50.9 79.3C54.1 71.6 53.3 64.5 50.4 57.2C49.8 55.8 53.1 56 53.3 56.1C54.2 56.2 55 56.7 55.3 57.5C58.3 65 58.2 72.9 54.8 81ZM74.7 43.1L75.2 45.3C75.5 46.6 75.8 48 75.9 49.5C77.8 59.2 75.1 67 68 72.6C67.2 73.2 65.9 74 64.7 74.6C63.1 75.4 60.8 74.6 60.3 73.1C59.9 71.7 60.5 71.5 64.5 68.3C70 64 71.9 58.3 70.4 50.4V50.3V50.2C70.3 49 70.1 47.9 69.8 46.6L69.3 44.4C67.8 38.4 67.7 32.4 68.9 26C68.4 26.2 67.8 26.4 67.4 26.6C59.3 30.1 53.4 35.4 50 42.6C48.8 45.2 47.8 48 47.2 51C46.4 54.6 46.2 56.9 46.6 59.2C46.7 60.2 47 61.2 47.4 62.3C47.9 63.8 48.9 65.6 49.4 66.6C49.7 67.1 49.8 67.6 49.8 68.2C49.8 69 49.8 70.1 49.9 71.1C50.1 73 48.3 73.4 47.4 72.4C45.3 70.3 43.2 66.5 42.8 65.4C41.4 61.9 40.6 56 41.9 49.9C42.6 46.7 43.5 43.7 44.8 41C45.5 39.4 46.4 37.8 47.3 36.4C51.4 30 57.4 25 65.3 21.7C67.2 20.9 69.4 20.3 72.2 19.7L73.7 19.4L76.6 18.9L75.8 21.8L75.4 23.2C73.3 30 73.1 36.5 74.7 43.1Z"/>
</svg>
